<?xml version="1.0" encoding="utf-8"?>
<!-- Generator: Adobe Illustrator 24.2.1, SVG Export Plug-In . SVG Version: 6.00 Build 0)  -->
<svg version="1.1" id="Layer_1" xmlns="http://www.w3.org/2000/svg" xmlns:xlink="http://www.w3.org/1999/xlink" x="0px" y="0px"
	 viewBox="0 0 170.1 170.1" style="enable-background:new 0 0 170.1 170.1;" xml:space="preserve">
<style type="text/css">
	.st0{fill:#FFFFFF;}
	.st1{fill:#2C2C2C;}
	.st2{fill:none;stroke:#2C2C2C;stroke-width:2;stroke-miterlimit:10;}
</style>
<circle class="st0" cx="85" cy="85" r="85"/>
<path class="st1" d="M95,91.6c-4.7,4.8-12.4,4.9-17.2,0.2c-2.3-2.3-3.6-5.4-3.6-8.7c-0.1-3.3,1.2-6.4,3.6-8.7
	c2.3-2.3,5.4-3.6,8.6-3.5c6.7-0.1,12.2,5.4,12.2,12.1C98.6,86.2,97.2,89.3,95,91.6L95,91.6z M93.3,89.9c3.8-3.8,3.8-10,0-13.9
	c-1.8-1.8-4.3-2.9-6.9-2.8c-5.4,0-9.8,4.4-9.8,9.8l0,0c0,5.4,4.4,9.8,9.8,9.8C88.9,92.8,91.4,91.8,93.3,89.9L93.3,89.9z"/>
<path class="st1" d="M107.7,121.2l-1.7-1.7l9.5-9.5c2.6-2.6,3-5.7,1-9.2c-0.4-0.6-0.8-1.3-1.3-1.9s-1.2-1.1-2-1.4
	c-3.6-1.9-6.6-1.6-9.2,1l-9.5,9.5l-1.7-1.7l9.5-9.5c3.4-3.4,7.4-3.9,12-1.5c1.9,0.9,3.5,2.5,4.5,4.5c2.3,4.6,1.9,8.6-1.5,12
	C117.3,111.6,107.7,121.2,107.7,121.2z"/>
<path class="st1" d="M139.1,135.6c-4.7,4.7-12.5,4.7-17.3,0c-4.7-4.7-4.7-12.5,0-17.3c2.3-2.3,5.4-3.6,8.6-3.5
	c3.3,0,6.4,1.3,8.6,3.5C143.7,123.2,143.8,130.9,139.1,135.6L139.1,135.6z M137.4,133.9c3.8-3.8,3.8-10,0-13.9
	c-3.8-3.8-10-3.8-13.9,0c-1.8,1.8-2.9,4.3-2.8,6.9c0,5.4,4.4,9.8,9.8,9.8C133,136.8,135.5,135.8,137.4,133.9z"/>
<path class="st1" d="M93.8,10.6c-2.2,0-4,0-5.3,0.1c-9.7,0.2-14.6,4.3-14.6,12.2c0,4.6,4,6.9,12.1,6.9c3.7,0,6.3-0.3,7.7-0.8v2
	c-1.9,0.6-3.9,1.1-5.9,1.3c-10.9,0-16.3-3.1-16.3-9.3s2.4-10.3,7.1-12.5c3.1-1.5,8.1-2.2,15.1-2.3L93.8,10.6z"/>
<path class="st1" d="M90.2,41.6c-0.9,0-1.8,0-2.7,0.3l-2.6,0.9c-3.9,1.2-5.8,3.6-5.8,7.3v13.6h-2.4V50c0-2.7,0.6-4.8,1.8-6.2
	c1.1-1.3,3-2.4,5.6-3.3c1.9-0.6,2.9-1,3-1c1-0.2,2.1-0.2,3.2-0.2L90.2,41.6L90.2,41.6z"/>
<line class="st2" x1="85" y1="136.8" x2="85" y2="161.4"/>
<line class="st2" x1="30.2" y1="32.7" x2="43.4" y2="45.9"/>
<line class="st2" x1="131.2" y1="44.8" x2="142.2" y2="33.8"/>
<line class="st2" x1="31.2" y1="142.4" x2="42.4" y2="131.2"/>
</svg>
