<svg xmlns="http://www.w3.org/2000/svg" viewBox="0 0 402.36 76.9"><title>crono_logo</title><path d="M6.18,64.73H7.23v3H8.89v.91H7.23v7.24H6.18V68.67H4.75v-.91H6.18Z" transform="translate(-4.75 -2.2)" fill="#2c2c2c"/><path d="M12.57,67.76h1v3.81a8.14,8.14,0,0,0,.15,1.92,2.14,2.14,0,0,0,.86,1.18,2.6,2.6,0,0,0,1.51.43,2.54,2.54,0,0,0,1.49-.42,2.17,2.17,0,0,0,.85-1.11,8.09,8.09,0,0,0,.16-2V67.76h1.07v4a6.16,6.16,0,0,1-.4,2.54,3,3,0,0,1-1.18,1.34,3.77,3.77,0,0,1-2,.48,3.78,3.78,0,0,1-2-.48A2.9,2.9,0,0,1,13,74.29a6.42,6.42,0,0,1-.4-2.6Z" transform="translate(-4.75 -2.2)" fill="#2c2c2c"/><path d="M32.42,64.61v11.3h-1v-1.4a4.52,4.52,0,0,1-1.48,1.21,4,4,0,0,1-1.8.4,4,4,0,0,1-3-1.25,4.25,4.25,0,0,1-1.22-3.06,4.11,4.11,0,0,1,1.24-3,4,4,0,0,1,3-1.25A3.79,3.79,0,0,1,30,68a4.11,4.11,0,0,1,1.43,1.28V64.61Zm-4.19,4a3.12,3.12,0,0,0-1.62.43,3.19,3.19,0,0,0-1.18,1.21,3.3,3.3,0,0,0,0,3.29,3.27,3.27,0,0,0,1.19,1.23,3.13,3.13,0,0,0,1.6.44,3.27,3.27,0,0,0,1.63-.44A3,3,0,0,0,31,73.55a3.34,3.34,0,0,0,.42-1.67,3.27,3.27,0,0,0-.94-2.37A3.09,3.09,0,0,0,28.23,68.56Z" transform="translate(-4.75 -2.2)" fill="#2c2c2c"/><path d="M40.9,67.55A4,4,0,0,1,44,68.91a4.21,4.21,0,0,1,1.13,3,4.28,4.28,0,0,1-1.19,3,4.33,4.33,0,0,1-6.13,0,4.37,4.37,0,0,1-.06-5.93A4.06,4.06,0,0,1,40.9,67.55Zm0,1a3,3,0,0,0-2.25,1,3.24,3.24,0,0,0-.94,2.34,3.28,3.28,0,0,0,.43,1.65,3,3,0,0,0,1.15,1.18,3.28,3.28,0,0,0,3.21,0,3.06,3.06,0,0,0,1.16-1.18,3.38,3.38,0,0,0,.43-1.65,3.25,3.25,0,0,0-1-2.34A3,3,0,0,0,40.9,68.58Z" transform="translate(-4.75 -2.2)" fill="#2c2c2c"/><path d="M59.93,68.65l-.68.7a2.4,2.4,0,0,0-1.64-.82,1.23,1.23,0,0,0-.88.34,1,1,0,0,0-.36.78,1.16,1.16,0,0,0,.3.76,4.13,4.13,0,0,0,1.26.86,4.84,4.84,0,0,1,1.59,1.17,2.11,2.11,0,0,1,.41,1.29,2.3,2.3,0,0,1-.7,1.7,2.43,2.43,0,0,1-1.77.69,3.09,3.09,0,0,1-1.34-.3A3,3,0,0,1,55.05,75l.66-.75a2.33,2.33,0,0,0,1.71.91,1.52,1.52,0,0,0,1.07-.41,1.23,1.23,0,0,0,.45-1,1.19,1.19,0,0,0-.3-.8,4.55,4.55,0,0,0-1.32-.87A4.23,4.23,0,0,1,55.82,71a2.08,2.08,0,0,1-.4-1.26,2.05,2.05,0,0,1,.64-1.55,2.19,2.19,0,0,1,1.6-.61A3.34,3.34,0,0,1,59.93,68.65Z" transform="translate(-4.75 -2.2)" fill="#2c2c2c"/><path d="M67.89,67.55A4,4,0,0,1,71,68.91,4.38,4.38,0,0,1,71,74.85a4.33,4.33,0,0,1-6.13,0,4.37,4.37,0,0,1-.06-5.93A4,4,0,0,1,67.89,67.55Zm0,1a3,3,0,0,0-2.25,1,3.28,3.28,0,0,0-.94,2.34,3.38,3.38,0,0,0,.43,1.65,3.12,3.12,0,0,0,2.76,1.6,3.17,3.17,0,0,0,1.61-.42,3.13,3.13,0,0,0,1.16-1.18,3.37,3.37,0,0,0,.42-1.65,3.24,3.24,0,0,0-.94-2.34A3,3,0,0,0,67.88,68.58Z" transform="translate(-4.75 -2.2)" fill="#2c2c2c"/><path d="M76.39,75.91V64.61h1v4.55A4.49,4.49,0,0,1,78.91,68a4.16,4.16,0,0,1,4.75.85,4.24,4.24,0,0,1,1.22,3,4.14,4.14,0,0,1-1.23,3,4,4,0,0,1-3,1.25,3.85,3.85,0,0,1-1.8-.42,4.31,4.31,0,0,1-1.43-1.28v1.49Zm4.2-.8a3.16,3.16,0,0,0,2.79-1.64,3.34,3.34,0,0,0,.44-1.65,3.41,3.41,0,0,0-.44-1.66,3.24,3.24,0,0,0-1.19-1.22,3.07,3.07,0,0,0-1.59-.44,3.27,3.27,0,0,0-1.63.44,3,3,0,0,0-1.19,1.18,3.31,3.31,0,0,0-.42,1.67,3.24,3.24,0,0,0,.93,2.37A3.12,3.12,0,0,0,80.59,75.11Z" transform="translate(-4.75 -2.2)" fill="#2c2c2c"/><path d="M88.64,67.76h1.07V69a3.78,3.78,0,0,1,1-1,2,2,0,0,1,1.11-.35,1.87,1.87,0,0,1,.93.28l-.55.88a1.53,1.53,0,0,0-.55-.14,1.49,1.49,0,0,0-1,.43,2.61,2.61,0,0,0-.74,1.34,12.67,12.67,0,0,0-.2,2.82v2.75H88.64Z" transform="translate(-4.75 -2.2)" fill="#2c2c2c"/><path d="M102.76,73.21l.89.46a4.84,4.84,0,0,1-1,1.38,4,4,0,0,1-1.28.8,4.59,4.59,0,0,1-1.62.27,3.9,3.9,0,0,1-3.12-1.3,4.49,4.49,0,0,1-.17-5.73,3.89,3.89,0,0,1,3.23-1.54A4.05,4.05,0,0,1,103,69.13a4.4,4.4,0,0,1,.9,2.79H96.58a3.31,3.31,0,0,0,.91,2.33,2.89,2.89,0,0,0,2.16.91,3.42,3.42,0,0,0,1.22-.22,3.35,3.35,0,0,0,1-.57A5.14,5.14,0,0,0,102.76,73.21Zm0-2.2a3.4,3.4,0,0,0-.61-1.34,2.91,2.91,0,0,0-1.06-.81,3.35,3.35,0,0,0-1.39-.31,3,3,0,0,0-2.06.77,3.49,3.49,0,0,0-1,1.69Z" transform="translate(-4.75 -2.2)" fill="#2c2c2c"/><path d="M122.73,67.76v8.15h-1v-1.4a4.52,4.52,0,0,1-1.48,1.21,4,4,0,0,1-1.8.4,4,4,0,0,1-3-1.25,4.25,4.25,0,0,1-1.22-3.06,4.11,4.11,0,0,1,1.24-3,4,4,0,0,1,3-1.25,3.79,3.79,0,0,1,1.82.43,4.11,4.11,0,0,1,1.43,1.28v-1.5Zm-4.19.8a3.12,3.12,0,0,0-1.62.43,3.19,3.19,0,0,0-1.18,1.21,3.3,3.3,0,0,0,0,3.29,3.2,3.2,0,0,0,1.19,1.23,3.13,3.13,0,0,0,1.6.44,3.27,3.27,0,0,0,1.63-.44,3,3,0,0,0,1.19-1.17,3.34,3.34,0,0,0,.42-1.67,3.27,3.27,0,0,0-.94-2.37A3.09,3.09,0,0,0,118.54,68.56Z" transform="translate(-4.75 -2.2)" fill="#2c2c2c"/><path d="M141.74,69.45l-.83.52A3.5,3.5,0,0,0,138,68.54a3.43,3.43,0,0,0-2.48,1,3.14,3.14,0,0,0-1,2.33A3.3,3.3,0,0,0,135,73.5a3.12,3.12,0,0,0,1.25,1.22,3.74,3.74,0,0,0,4.7-1l.83.54a3.87,3.87,0,0,1-1.57,1.37,5,5,0,0,1-2.24.48,4.44,4.44,0,0,1-3.21-1.23,4,4,0,0,1-1.28-3,4.29,4.29,0,0,1,2.24-3.78,4.76,4.76,0,0,1,2.33-.57,4.81,4.81,0,0,1,1.56.25,4.26,4.26,0,0,1,1.28.64A3.48,3.48,0,0,1,141.74,69.45Z" transform="translate(-4.75 -2.2)" fill="#2c2c2c"/><path d="M145.6,67.76h1.08V69a3.64,3.64,0,0,1,1-1,1.92,1.92,0,0,1,1.11-.35,1.87,1.87,0,0,1,.93.28l-.55.88a1.32,1.32,0,0,0-1.57.29,2.76,2.76,0,0,0-.74,1.34,12.88,12.88,0,0,0-.19,2.82v2.75H145.6Z" transform="translate(-4.75 -2.2)" fill="#2c2c2c"/><path d="M156.72,67.55a4,4,0,0,1,3.13,1.36,4.4,4.4,0,0,1-.07,5.94,4.33,4.33,0,0,1-6.13,0,4.37,4.37,0,0,1-.06-5.93A4.06,4.06,0,0,1,156.72,67.55Zm0,1a3,3,0,0,0-2.25,1,3.24,3.24,0,0,0-.94,2.34,3.28,3.28,0,0,0,.43,1.65,3,3,0,0,0,1.16,1.18,3.26,3.26,0,0,0,3.2,0,3.06,3.06,0,0,0,1.16-1.18,3.38,3.38,0,0,0,.43-1.65,3.25,3.25,0,0,0-.95-2.34A3,3,0,0,0,156.72,68.58Z" transform="translate(-4.75 -2.2)" fill="#2c2c2c"/><path d="M165.15,67.76h1v1.46A4.45,4.45,0,0,1,167.6,68a3.49,3.49,0,0,1,1.66-.41,2.93,2.93,0,0,1,1.63.46,2.76,2.76,0,0,1,1,1.25,6.57,6.57,0,0,1,.34,2.46v4.19h-1.05V72a9.35,9.35,0,0,0-.12-1.88,2.06,2.06,0,0,0-.7-1.22,2.11,2.11,0,0,0-1.35-.4,2.62,2.62,0,0,0-1.7.62,3,3,0,0,0-1,1.56,10.92,10.92,0,0,0-.15,2.22v3h-1Z" transform="translate(-4.75 -2.2)" fill="#2c2c2c"/><path d="M180.62,67.55a4,4,0,0,1,3.12,1.36,4.38,4.38,0,0,1-.06,5.94,4.33,4.33,0,0,1-6.13,0,4.37,4.37,0,0,1-.06-5.93A4,4,0,0,1,180.62,67.55Zm0,1a3,3,0,0,0-2.25,1,3.24,3.24,0,0,0-.94,2.34,3.28,3.28,0,0,0,.43,1.65A3,3,0,0,0,179,74.71a3.28,3.28,0,0,0,3.21,0,3.06,3.06,0,0,0,1.16-1.18,3.38,3.38,0,0,0,.43-1.65,3.25,3.25,0,0,0-.95-2.34A3,3,0,0,0,180.62,68.58Z" transform="translate(-4.75 -2.2)" fill="#2c2c2c"/><path d="M189.05,67.76h1v1.41A4.05,4.05,0,0,1,191.22,68a3.19,3.19,0,0,1,1.67-.48,2.85,2.85,0,0,1,1.13.23,2.37,2.37,0,0,1,.87.62,3.31,3.31,0,0,1,.59,1.1,3.86,3.86,0,0,1,1.31-1.45,3,3,0,0,1,1.69-.5A2.61,2.61,0,0,1,200,68a2.53,2.53,0,0,1,1,1.19,6.34,6.34,0,0,1,.31,2.29v4.45h-1.07V71.46a5.63,5.63,0,0,0-.19-1.8,1.58,1.58,0,0,0-.63-.79,2,2,0,0,0-1.08-.3,2.36,2.36,0,0,0-1.4.45,2.56,2.56,0,0,0-.92,1.2,7.43,7.43,0,0,0-.29,2.5v3.19h-1V71.74a6.86,6.86,0,0,0-.19-2,1.62,1.62,0,0,0-.64-.84,1.77,1.77,0,0,0-1.08-.32,2.28,2.28,0,0,0-1.36.44,2.5,2.5,0,0,0-.94,1.18,6.41,6.41,0,0,0-.3,2.27v3.45h-1Z" transform="translate(-4.75 -2.2)" fill="#2c2c2c"/><path d="M212.56,73.21l.89.46a4.84,4.84,0,0,1-1,1.38,4,4,0,0,1-1.28.8,4.53,4.53,0,0,1-1.61.27,3.9,3.9,0,0,1-3.13-1.3,4.49,4.49,0,0,1-.17-5.73,3.9,3.9,0,0,1,3.24-1.54,4,4,0,0,1,3.33,1.58,4.4,4.4,0,0,1,.9,2.79h-7.34a3.31,3.31,0,0,0,.91,2.33,2.9,2.9,0,0,0,2.17.91,3.4,3.4,0,0,0,1.21-.22,3.35,3.35,0,0,0,1-.57A5.14,5.14,0,0,0,212.56,73.21Zm0-2.2a3.4,3.4,0,0,0-.61-1.34,2.91,2.91,0,0,0-1.06-.81,3.32,3.32,0,0,0-1.39-.31,3,3,0,0,0-2.06.77,3.57,3.57,0,0,0-1,1.69Z" transform="translate(-4.75 -2.2)" fill="#2c2c2c"/><path d="M218.83,64.73h1v3h1.66v.91h-1.66v7.24h-1V68.67H217.4v-.91h1.43Z" transform="translate(-4.75 -2.2)" fill="#2c2c2c"/><path d="M225,67.76H226V69a3.66,3.66,0,0,1,1-1,1.91,1.91,0,0,1,1.1-.35,1.87,1.87,0,0,1,.93.28l-.54.88a1.57,1.57,0,0,0-.56-.14,1.51,1.51,0,0,0-1,.43,2.76,2.76,0,0,0-.74,1.34,12.67,12.67,0,0,0-.2,2.82v2.75H225Z" transform="translate(-4.75 -2.2)" fill="#2c2c2c"/><path d="M240.34,67.76v8.15h-1v-1.4a4.42,4.42,0,0,1-1.48,1.21,4,4,0,0,1-1.8.4,4,4,0,0,1-2.95-1.25,4.22,4.22,0,0,1-1.23-3.06,4.11,4.11,0,0,1,1.24-3,4,4,0,0,1,3-1.25,3.79,3.79,0,0,1,1.82.43,4.11,4.11,0,0,1,1.43,1.28v-1.5Zm-4.19.8a3.17,3.17,0,0,0-1.62.43,3.27,3.27,0,0,0-1.18,1.21,3.33,3.33,0,0,0-.43,1.65,3.23,3.23,0,0,0,.44,1.64,3.18,3.18,0,0,0,1.18,1.23,3.13,3.13,0,0,0,1.6.44,3.24,3.24,0,0,0,1.63-.44A3,3,0,0,0,239,73.55a3.34,3.34,0,0,0,.42-1.67,3.26,3.26,0,0,0-.93-2.37A3.12,3.12,0,0,0,236.15,68.56Z" transform="translate(-4.75 -2.2)" fill="#2c2c2c"/><path d="M252,67.76H253v6.5a7.68,7.68,0,0,1-.3,2.51,3.26,3.26,0,0,1-1.43,1.73,4.66,4.66,0,0,1-2.45.61,5.59,5.59,0,0,1-1.89-.3,3.69,3.69,0,0,1-1.36-.8,4.8,4.8,0,0,1-1-1.46h1.14a3,3,0,0,0,1.2,1.2,3.87,3.87,0,0,0,1.83.39,3.73,3.73,0,0,0,1.81-.4,2.49,2.49,0,0,0,1-1,4.52,4.52,0,0,0,.32-2v-.42a3.94,3.94,0,0,1-1.45,1.15,4.33,4.33,0,0,1-3.93-.15,4,4,0,0,1-1.53-1.51,4.24,4.24,0,0,1,3.67-6.3,3.82,3.82,0,0,1,1.71.38A4.75,4.75,0,0,1,252,69.17Zm-3.1.8a3.28,3.28,0,0,0-1.65.43,3.19,3.19,0,0,0-1.2,1.19,3.29,3.29,0,0,0-.44,1.65,3,3,0,0,0,.9,2.22,3.57,3.57,0,0,0,4.66,0,3.07,3.07,0,0,0,.88-2.29,3.33,3.33,0,0,0-.4-1.65A3,3,0,0,0,250.48,69,3.21,3.21,0,0,0,248.88,68.56Z" transform="translate(-4.75 -2.2)" fill="#2c2c2c"/><path d="M264.39,73.21l.88.46a4.84,4.84,0,0,1-1,1.38,3.89,3.89,0,0,1-1.28.8,4.49,4.49,0,0,1-1.61.27,3.9,3.9,0,0,1-3.12-1.3,4.44,4.44,0,0,1-1.13-3,4.39,4.39,0,0,1,.95-2.77,3.91,3.91,0,0,1,3.24-1.54,4,4,0,0,1,3.33,1.58,4.4,4.4,0,0,1,.9,2.79H258.2a3.31,3.31,0,0,0,.91,2.33,2.91,2.91,0,0,0,2.17.91,3.36,3.36,0,0,0,1.21-.22,3.23,3.23,0,0,0,1-.57A4.86,4.86,0,0,0,264.39,73.21Zm0-2.2a3.41,3.41,0,0,0-.62-1.34,2.83,2.83,0,0,0-1.06-.81,3.32,3.32,0,0,0-1.39-.31,3,3,0,0,0-2.06.77,3.48,3.48,0,0,0-.95,1.69Z" transform="translate(-4.75 -2.2)" fill="#2c2c2c"/><path d="M269.73,67.76h1v1.41A4.07,4.07,0,0,1,271.91,68a3.17,3.17,0,0,1,1.67-.48,2.93,2.93,0,0,1,1.13.23,2.54,2.54,0,0,1,.87.62,3.31,3.31,0,0,1,.58,1.1,3.94,3.94,0,0,1,1.31-1.45,3,3,0,0,1,1.69-.5,2.61,2.61,0,0,1,1.49.43,2.53,2.53,0,0,1,1,1.19,6.3,6.3,0,0,1,.32,2.29v4.45h-1.07V71.46a6,6,0,0,0-.19-1.8,1.65,1.65,0,0,0-.64-.79,1.9,1.9,0,0,0-1.08-.3,2.33,2.33,0,0,0-1.39.45,2.65,2.65,0,0,0-.93,1.2,7.7,7.7,0,0,0-.29,2.5v3.19h-1V71.74a7.36,7.36,0,0,0-.18-2,1.67,1.67,0,0,0-.64-.84,1.82,1.82,0,0,0-1.09-.32A2.3,2.3,0,0,0,272,69a2.63,2.63,0,0,0-.94,1.18,6.41,6.41,0,0,0-.3,2.27v3.45h-1Z" transform="translate(-4.75 -2.2)" fill="#2c2c2c"/><path d="M30.49,31.35c-2.57,0-4.6,0-6.1.07q-16.82.43-16.82,14.1,0,8,13.92,8,6.47,0,8.92-.94v2.25a30.75,30.75,0,0,1-6.81,1.45q-18.8,0-18.79-10.67T13,31.21q5.37-2.54,17.4-2.61Z" transform="translate(-4.75 -2.2)" fill="#2c2c2c"/><path d="M61.38,30.14a12,12,0,0,0-3.12.29l-3,1q-6.67,2-6.68,8.39V55.51H45.79V39.84c0-3.11.7-5.5,2.1-7.15,1.26-1.5,3.41-2.77,6.46-3.79,2.22-.73,3.36-1.12,3.4-1.17a20.94,20.94,0,0,1,3.63-.21Z" transform="translate(-4.75 -2.2)" fill="#2c2c2c"/><path d="M100.11,41.8a14,14,0,0,1-23.93,10A13.53,13.53,0,0,1,72,41.8a13.45,13.45,0,0,1,4.14-9.9,14,14,0,0,1,23.93,9.9Zm-2.76,0A11.28,11.28,0,0,0,78.1,33.86a11.3,11.3,0,0,0,0,16,11.28,11.28,0,0,0,19.25-8Z" transform="translate(-4.75 -2.2)" fill="#2c2c2c"/><path d="M134.63,55.51h-2.75V39.92q0-6.31-6.68-8.34a8.71,8.71,0,0,0-2.61-.44,9.54,9.54,0,0,0-2.75.44q-6.68,2-6.68,8.34V55.51h-2.75V39.88q0-8.3,8.48-10.91a11.65,11.65,0,0,1,7.26,0q8.47,2.69,8.48,10.91Z" transform="translate(-4.75 -2.2)" fill="#2c2c2c"/><path d="M171.84,41.8a14,14,0,1,1-28.07,0,13.47,13.47,0,0,1,4.13-9.9,13.62,13.62,0,0,1,9.94-4.09,14,14,0,0,1,14,14Zm-2.76,0a11.28,11.28,0,1,0-19.26,8,11.28,11.28,0,0,0,19.26-8Z" transform="translate(-4.75 -2.2)" fill="#2c2c2c"/><path d="M227.82,55.51h-2.75V39.82a7.92,7.92,0,0,0-1.6-5.39,11.4,11.4,0,0,0-5.07-3,10.36,10.36,0,0,0-2.83-.43,9.66,9.66,0,0,0-2.61.43A10.75,10.75,0,0,0,208,34.35a8,8,0,0,0-1.67,5.47V55.51H203.6V39a7,7,0,0,0-3-5.76A9.89,9.89,0,0,0,194.25,31a9.39,9.39,0,0,0-2.69.43,10.77,10.77,0,0,0-5,2.92,8.06,8.06,0,0,0-1.67,5.47V55.51h-2.76V39.88a11,11,0,0,1,3.52-8.33,12.07,12.07,0,0,1,8.6-3.31A13.17,13.17,0,0,1,200.34,30,11.35,11.35,0,0,1,205,34,11.35,11.35,0,0,1,209.62,30a13.17,13.17,0,0,1,6.09-1.73,12.07,12.07,0,0,1,8.6,3.31,11,11,0,0,1,3.51,8.33Z" transform="translate(-4.75 -2.2)" fill="#2c2c2c"/><path d="M266.19,37.6a48.39,48.39,0,0,1-.58,5.65h-27l-.14,1.6a8.24,8.24,0,0,0,1.45,5.44q1.59,2.18,3.26,4.42l-2.32,1.38q-1.81-2.54-3.63-5.15a11,11,0,0,1-1.52-6.09,16.35,16.35,0,0,1,6.09-12.91,20.21,20.21,0,0,1,13.64-5Q266.19,26.94,266.19,37.6Zm-2.76,0q0-7.91-7.1-7.91A20.25,20.25,0,0,0,246,32.3a14.46,14.46,0,0,0-6.75,8.2h24A22.47,22.47,0,0,0,263.43,37.6Z" transform="translate(-4.75 -2.2)" fill="#2c2c2c"/><path d="M281.93,55.51h-2.76V30.85h-5.44V28.1h5.44V2.2h2.76Z" transform="translate(-4.75 -2.2)" fill="#2c2c2c"/><path d="M315.29,30.14a12,12,0,0,0-3.12.29l-3.05,1q-6.66,2-6.67,8.39V55.51H299.7V39.84c0-3.11.7-5.5,2.1-7.15,1.26-1.5,3.41-2.77,6.45-3.79,2.23-.73,3.36-1.12,3.41-1.17a20.94,20.94,0,0,1,3.63-.21Z" transform="translate(-4.75 -2.2)" fill="#2c2c2c"/><path d="M332.84,56.38h-3a9.44,9.44,0,0,1-1.45-5.66V27.81h2.76V50.72A10.47,10.47,0,0,0,332.84,56.38Z" transform="translate(-4.75 -2.2)" fill="#2c2c2c"/><path d="M368.45,31.35c-2.56,0-4.59,0-6.09.07q-16.83.43-16.83,14.1,0,8,13.93,8,6.45,0,8.92-.94v2.25a30.8,30.8,0,0,1-6.82,1.45q-18.78,0-18.78-10.67T351,31.21q5.37-2.54,17.41-2.61Z" transform="translate(-4.75 -2.2)" fill="#2c2c2c"/><path d="M407.11,53.33a40.2,40.2,0,0,1-7.37,2,44.1,44.1,0,0,1-7.65,1q-14.14,0-14.14-10.76,0-8.44,7.69-13.53a28.35,28.35,0,0,1,15.59-4.43l5.88-.07Zm-2.62-22.84a6.37,6.37,0,0,0-1.88-.22,29.32,29.32,0,0,0-14.43,3.37q-7.47,4.17-7.47,11.93a6.77,6.77,0,0,0,4,6.3,16.07,16.07,0,0,0,7.69,1.68q7.9,0,12-2.19V43.3q0-2.19.07-6.48T404.49,30.49Z" transform="translate(-4.75 -2.2)" fill="#2c2c2c"/></svg>