<svg id="786fcdf4-6871-4537-bd9b-5d66b1d7ded3" data-name="Layer 1" xmlns="http://www.w3.org/2000/svg" viewBox="0 0 50.02 50"><title>face_logo</title><path d="M25,0a25.06,25.06,0,0,0-25,25A25.27,25.27,0,0,0,19.54,49.43,25.18,25.18,0,0,0,25,50a15.08,15.08,0,0,0,2.23-.11A25,25,0,0,0,25,0Zm2,48.67V30.31h5.22v-5.7H27V22.77A3.9,3.9,0,0,1,27.67,20a2.78,2.78,0,0,1,2.15-.74,12.44,12.44,0,0,1,3.25.45l.92-5a17.7,17.7,0,0,0-5.89-.85,9.66,9.66,0,0,0-4.91,1.05,5.44,5.44,0,0,0-2.64,2.7,12.94,12.94,0,0,0-.74,5v2H15.88v5.7h3.93V48.24a23.91,23.91,0,1,1,7.18.43Z" transform="translate(0.08)" fill="#fff"/></svg>