<svg id="d60f0e38-2e50-4d6c-88f0-b1a719560d7d" data-name="Layer 1" xmlns="http://www.w3.org/2000/svg" viewBox="0 0 49.97 49.97"><title>googl_logo</title><path d="M25,0A25,25,0,1,0,50,25,25,25,0,0,0,25,0Zm0,48.75A23.77,23.77,0,1,1,48.75,25,23.76,23.76,0,0,1,25,48.78Z" transform="translate(0 -0.03)" fill="#fff"/><path d="M19,23.07v4.66h6.35c-1,3-2.54,4.67-6.35,4.67a7,7,0,0,1,0-14,6.66,6.66,0,0,1,4.56,1.71c1-1,.88-1.1,3.34-3.43A11.76,11.76,0,1,0,19,37.17c9.7,0,12.07-8.46,11.28-14.1Z" transform="translate(0 -0.03)" fill="#fff"/><polygon points="40.21 23.27 40.21 19.19 37.3 19.19 37.3 23.27 33.12 23.27 33.12 26.18 37.3 26.18 37.3 30.38 40.21 30.38 40.21 26.18 44.28 26.18 44.28 23.27 40.21 23.27" fill="#fff"/></svg>