<svg id="a78682bd-a665-4cfa-a163-eaee44d62dc1" data-name="Layer 1" xmlns="http://www.w3.org/2000/svg" viewBox="0 0 49.98 49.99"><title>insta_logo</title><path d="M25,1.22A23.78,23.78,0,1,1,1.22,25,23.78,23.78,0,0,1,25,1.22M25,0A25,25,0,1,0,50,25,25,25,0,0,0,25,0Z" transform="translate(0 -0.01)" fill="#fff"/><path d="M34.45,12.17H15.55c-2.25,0-3.42,1.2-3.42,3.44V34.48a3,3,0,0,0,3.3,3.35h19a3.05,3.05,0,0,0,3.4-3.38V15.53A3.05,3.05,0,0,0,34.45,12.17Zm-2.08,2.92c2.54,0,2.54,0,2.54,2.54s0,2.49-2.5,2.49-2.53,0-2.53-2.53S29.88,15.09,32.37,15.09ZM25,20A5,5,0,1,1,20,25,5.1,5.1,0,0,1,25,20Zm9.9,13.38c0,1.2-.33,1.53-1.52,1.53H16.59c-1.18,0-1.51-.33-1.51-1.53,0-3.1,0-6.25,0-9.37,0-.89.24-1.08,1.06-1.05,1.17.1,1.2,0,1.06,1.19a7.87,7.87,0,1,0,15.56-.62c-.09-.45,0-.53.42-.53,1.77-.14,1.77-.17,1.77,1.67Z" transform="translate(0 -0.01)" fill="#fff" fill-rule="evenodd"/></svg>