<?xml version="1.0" encoding="utf-8"?>
<!-- Generator: Adobe Illustrator 22.0.0, SVG Export Plug-In . SVG Version: 6.00 Build 0)  -->
<svg version="1.1" id="Layer_1" xmlns="http://www.w3.org/2000/svg" xmlns:xlink="http://www.w3.org/1999/xlink" x="0px" y="0px"
	 viewBox="0 0 1785.8 167.2" style="enable-background:new 0 0 1785.8 167.2;" xml:space="preserve">
<style type="text/css">
	.st0{fill:#2C2C2C;}
	.st1{fill:none;stroke:#2C2C2C;stroke-width:2;stroke-miterlimit:10;}
</style>
<g>
	<path class="st0" d="M169.9,135.6v-2.3h12.8v2.3h-5.2v21.1h-2.4v-21.1H169.9z"/>
	<path class="st0" d="M190.2,139.4h2.2v8.1c0,2,0.1,3.3,0.3,4.1c0.3,1.1,0.9,1.9,1.8,2.5c0.9,0.6,2,0.9,3.2,0.9
		c1.2,0,2.3-0.3,3.2-0.9c0.9-0.6,1.5-1.4,1.8-2.4c0.2-0.7,0.3-2.1,0.3-4.2v-8.1h2.3v8.5c0,2.4-0.3,4.2-0.8,5.4s-1.4,2.2-2.5,2.8
		c-1.1,0.7-2.5,1-4.2,1c-1.7,0-3.1-0.3-4.2-1s-2-1.6-2.5-2.9c-0.6-1.2-0.8-3.1-0.8-5.5V139.4z"/>
	<path class="st0" d="M232.2,132.7v23.9H230v-3c-0.9,1.1-2,2-3.1,2.6c-1.2,0.6-2.4,0.9-3.8,0.9c-2.4,0-4.5-0.9-6.3-2.7
		s-2.6-3.9-2.6-6.5c0-2.5,0.9-4.6,2.6-6.4c1.7-1.8,3.8-2.7,6.3-2.7c1.4,0,2.7,0.3,3.9,0.9c1.1,0.6,2.2,1.5,3,2.7v-9.8H232.2z
		 M223.4,141.1c-1.2,0-2.4,0.3-3.4,0.9s-1.9,1.5-2.5,2.6c-0.6,1.1-0.9,2.3-0.9,3.5c0,1.2,0.3,2.4,0.9,3.5c0.6,1.1,1.5,2,2.5,2.6
		c1.1,0.6,2.2,0.9,3.4,0.9c1.2,0,2.4-0.3,3.5-0.9c1.1-0.6,1.9-1.4,2.5-2.5c0.6-1,0.9-2.2,0.9-3.5c0-2-0.7-3.7-2-5
		C226.9,141.8,225.3,141.1,223.4,141.1z"/>
	<path class="st0" d="M250.2,138.9c2.7,0,4.9,1,6.6,2.9c1.6,1.8,2.4,3.8,2.4,6.2c0,2.4-0.8,4.5-2.5,6.3c-1.7,1.8-3.8,2.7-6.5,2.7
		c-2.7,0-4.8-0.9-6.5-2.7c-1.7-1.8-2.5-3.9-2.5-6.3c0-2.4,0.8-4.5,2.4-6.2C245.3,139.9,247.5,138.9,250.2,138.9z M250.2,141.1
		c-1.8,0-3.4,0.7-4.8,2s-2,3-2,5c0,1.2,0.3,2.4,0.9,3.5c0.6,1.1,1.4,1.9,2.5,2.5c1,0.6,2.2,0.9,3.4,0.9s2.4-0.3,3.4-0.9
		c1-0.6,1.8-1.4,2.5-2.5c0.6-1.1,0.9-2.2,0.9-3.5c0-1.9-0.7-3.6-2-5S252,141.1,250.2,141.1z"/>
	<path class="st0" d="M290.5,141.3l-1.4,1.5c-1.2-1.2-2.4-1.7-3.5-1.7c-0.7,0-1.3,0.2-1.9,0.7c-0.5,0.5-0.8,1-0.8,1.7
		c0,0.6,0.2,1.1,0.6,1.6c0.4,0.5,1.3,1.1,2.7,1.8c1.7,0.9,2.8,1.7,3.4,2.5c0.6,0.8,0.9,1.7,0.9,2.7c0,1.4-0.5,2.6-1.5,3.6
		c-1,1-2.2,1.5-3.7,1.5c-1,0-1.9-0.2-2.9-0.7c-0.9-0.4-1.7-1-2.3-1.8l1.4-1.6c1.1,1.3,2.3,1.9,3.6,1.9c0.9,0,1.6-0.3,2.3-0.9
		c0.6-0.6,0.9-1.2,0.9-2c0-0.6-0.2-1.2-0.6-1.7c-0.4-0.5-1.3-1.1-2.8-1.8c-1.6-0.8-2.6-1.6-3.2-2.4c-0.6-0.8-0.8-1.7-0.8-2.7
		c0-1.3,0.4-2.4,1.3-3.3s2-1.3,3.4-1.3C287.3,138.9,288.9,139.7,290.5,141.3z"/>
	<path class="st0" d="M307.4,138.9c2.7,0,4.9,1,6.6,2.9c1.6,1.8,2.4,3.8,2.4,6.2c0,2.4-0.8,4.5-2.5,6.3c-1.7,1.8-3.8,2.7-6.5,2.7
		c-2.7,0-4.8-0.9-6.5-2.7c-1.7-1.8-2.5-3.9-2.5-6.3c0-2.4,0.8-4.5,2.4-6.2C302.5,139.9,304.7,138.9,307.4,138.9z M307.4,141.1
		c-1.8,0-3.4,0.7-4.8,2s-2,3-2,5c0,1.2,0.3,2.4,0.9,3.5c0.6,1.1,1.4,1.9,2.5,2.5c1,0.6,2.2,0.9,3.4,0.9s2.4-0.3,3.4-0.9
		c1-0.6,1.8-1.4,2.5-2.5c0.6-1.1,0.9-2.2,0.9-3.5c0-1.9-0.7-3.6-2-5S309.2,141.1,307.4,141.1z"/>
	<path class="st0" d="M325.4,156.7v-23.9h2.2v9.6c0.9-1.1,2-2,3.1-2.6s2.4-0.8,3.8-0.8c2.4,0,4.5,0.9,6.3,2.7
		c1.7,1.8,2.6,3.9,2.6,6.5c0,2.5-0.9,4.6-2.6,6.4c-1.7,1.8-3.8,2.7-6.3,2.7c-1.4,0-2.7-0.3-3.8-0.9c-1.1-0.6-2.2-1.5-3-2.7v3.2
		H325.4z M334.3,155c1.2,0,2.4-0.3,3.4-0.9c1-0.6,1.9-1.5,2.5-2.6c0.6-1.1,0.9-2.3,0.9-3.5s-0.3-2.4-0.9-3.5c-0.6-1.1-1.5-2-2.5-2.6
		c-1.1-0.6-2.2-0.9-3.4-0.9c-1.2,0-2.4,0.3-3.5,0.9s-1.9,1.5-2.5,2.5c-0.6,1-0.9,2.2-0.9,3.5c0,2,0.7,3.7,2,5
		C330.7,154.3,332.3,155,334.3,155z"/>
	<path class="st0" d="M351.3,139.4h2.3v2.5c0.7-1,1.4-1.7,2.1-2.2c0.8-0.5,1.5-0.7,2.4-0.7c0.6,0,1.3,0.2,2,0.6l-1.2,1.9
		c-0.5-0.2-0.9-0.3-1.2-0.3c-0.7,0-1.5,0.3-2.1,0.9c-0.7,0.6-1.2,1.6-1.6,2.8c-0.3,1-0.4,3-0.4,6v5.8h-2.3V139.4z"/>
	<path class="st0" d="M381.2,150.9l1.9,1c-0.6,1.2-1.3,2.2-2.1,2.9c-0.8,0.7-1.7,1.3-2.7,1.7s-2.1,0.6-3.4,0.6c-2.8,0-5-0.9-6.6-2.8
		s-2.4-3.9-2.4-6.3c0-2.2,0.7-4.1,2-5.9c1.7-2.2,4-3.3,6.9-3.3c2.9,0,5.3,1.1,7.1,3.4c1.3,1.6,1.9,3.5,1.9,5.9h-15.5
		c0,2,0.7,3.7,1.9,4.9c1.2,1.3,2.8,1.9,4.6,1.9c0.9,0,1.7-0.2,2.6-0.5c0.8-0.3,1.5-0.7,2.1-1.2C379.9,152.9,380.6,152.1,381.2,150.9
		z M381.2,146.3c-0.3-1.2-0.7-2.1-1.3-2.8c-0.6-0.7-1.3-1.3-2.3-1.7c-0.9-0.4-1.9-0.7-2.9-0.7c-1.7,0-3.2,0.5-4.4,1.6
		c-0.9,0.8-1.6,2-2,3.6H381.2z"/>
	<path class="st0" d="M423.6,139.4v17.3h-2.2v-3c-0.9,1.1-2,2-3.1,2.6c-1.2,0.6-2.4,0.9-3.8,0.9c-2.4,0-4.5-0.9-6.3-2.7
		s-2.6-3.9-2.6-6.5c0-2.5,0.9-4.6,2.6-6.4c1.7-1.8,3.8-2.7,6.3-2.7c1.4,0,2.7,0.3,3.9,0.9c1.1,0.6,2.2,1.5,3,2.7v-3.2H423.6z
		 M414.7,141.1c-1.2,0-2.4,0.3-3.4,0.9s-1.9,1.5-2.5,2.6c-0.6,1.1-0.9,2.3-0.9,3.5c0,1.2,0.3,2.4,0.9,3.5c0.6,1.1,1.5,2,2.5,2.6
		c1.1,0.6,2.2,0.9,3.4,0.9c1.2,0,2.4-0.3,3.5-0.9c1.1-0.6,1.9-1.4,2.5-2.5s0.9-2.2,0.9-3.5c0-2-0.7-3.7-2-5
		C418.2,141.8,416.6,141.1,414.7,141.1z"/>
	<path class="st0" d="M463.8,143l-1.8,1.1c-1.5-2-3.6-3-6.2-3c-2.1,0-3.9,0.7-5.2,2s-2.1,3-2.1,4.9c0,1.3,0.3,2.4,1,3.6
		c0.6,1.1,1.5,2,2.6,2.6s2.4,0.9,3.8,0.9c2.5,0,4.6-1,6.2-3l1.8,1.2c-0.8,1.2-1.9,2.2-3.3,2.9c-1.4,0.7-3,1-4.8,1
		c-2.7,0-5-0.9-6.8-2.6s-2.7-3.8-2.7-6.3c0-1.7,0.4-3.2,1.3-4.7c0.8-1.4,2-2.6,3.5-3.4c1.5-0.8,3.1-1.2,4.9-1.2
		c1.1,0,2.2,0.2,3.3,0.5c1.1,0.3,2,0.8,2.7,1.4C462.7,141.4,463.3,142.1,463.8,143z"/>
	<path class="st0" d="M472,139.4h2.3v2.5c0.7-1,1.4-1.7,2.1-2.2c0.8-0.5,1.5-0.7,2.4-0.7c0.6,0,1.3,0.2,2,0.6l-1.2,1.9
		c-0.5-0.2-0.9-0.3-1.2-0.3c-0.7,0-1.5,0.3-2.1,0.9c-0.7,0.6-1.2,1.6-1.6,2.8c-0.3,1-0.4,3-0.4,6v5.8H472V139.4z"/>
	<path class="st0" d="M495.6,138.9c2.7,0,4.9,1,6.6,2.9c1.6,1.8,2.4,3.8,2.4,6.2c0,2.4-0.8,4.5-2.5,6.3c-1.7,1.8-3.8,2.7-6.5,2.7
		c-2.7,0-4.8-0.9-6.5-2.7c-1.7-1.8-2.5-3.9-2.5-6.3c0-2.4,0.8-4.5,2.4-6.2C490.7,139.9,492.9,138.9,495.6,138.9z M495.5,141.1
		c-1.8,0-3.4,0.7-4.8,2s-2,3-2,5c0,1.2,0.3,2.4,0.9,3.5c0.6,1.1,1.4,1.9,2.5,2.5c1,0.6,2.2,0.9,3.4,0.9s2.4-0.3,3.4-0.9
		c1-0.6,1.8-1.4,2.5-2.5c0.6-1.1,0.9-2.2,0.9-3.5c0-1.9-0.7-3.6-2-5S497.4,141.1,495.5,141.1z"/>
	<path class="st0" d="M513.4,139.4h2.2v3.1c0.9-1.2,1.9-2.1,3-2.7c1.1-0.6,2.3-0.9,3.5-0.9c1.3,0,2.4,0.3,3.4,1
		c1,0.7,1.7,1.5,2.2,2.7c0.5,1.1,0.7,2.8,0.7,5.2v8.9h-2.2v-8.2c0-2-0.1-3.3-0.2-4c-0.3-1.1-0.8-2-1.5-2.6c-0.7-0.6-1.7-0.9-2.9-0.9
		c-1.3,0-2.5,0.4-3.6,1.3c-1.1,0.9-1.8,2-2.1,3.3c-0.2,0.9-0.3,2.4-0.3,4.7v6.3h-2.2V139.4z"/>
	<path class="st0" d="M546.2,138.9c2.7,0,4.9,1,6.6,2.9c1.6,1.8,2.4,3.8,2.4,6.2c0,2.4-0.8,4.5-2.5,6.3c-1.7,1.8-3.8,2.7-6.5,2.7
		c-2.7,0-4.8-0.9-6.5-2.7c-1.7-1.8-2.5-3.9-2.5-6.3c0-2.4,0.8-4.5,2.4-6.2C541.3,139.9,543.5,138.9,546.2,138.9z M546.2,141.1
		c-1.8,0-3.4,0.7-4.8,2s-2,3-2,5c0,1.2,0.3,2.4,0.9,3.5c0.6,1.1,1.4,1.9,2.5,2.5c1,0.6,2.2,0.9,3.4,0.9s2.4-0.3,3.4-0.9
		c1-0.6,1.8-1.4,2.5-2.5c0.6-1.1,0.9-2.2,0.9-3.5c0-1.9-0.7-3.6-2-5S548,141.1,546.2,141.1z"/>
	<path class="st0" d="M564,139.4h2.2v3c0.8-1.1,1.6-1.9,2.4-2.4c1.1-0.7,2.3-1,3.5-1c0.8,0,1.6,0.2,2.4,0.5c0.8,0.3,1.4,0.8,1.8,1.3
		c0.5,0.5,0.9,1.3,1.2,2.3c0.7-1.4,1.7-2.4,2.8-3.1c1.1-0.7,2.3-1.1,3.6-1.1c1.2,0,2.2,0.3,3.2,0.9s1.6,1.4,2,2.5
		c0.4,1.1,0.7,2.7,0.7,4.9v9.4h-2.3v-9.4c0-1.9-0.1-3.1-0.4-3.8s-0.7-1.3-1.4-1.7c-0.6-0.4-1.4-0.6-2.3-0.6c-1.1,0-2.1,0.3-3,1
		s-1.5,1.5-2,2.5c-0.4,1.1-0.6,2.8-0.6,5.3v6.8h-2.2v-8.8c0-2.1-0.1-3.5-0.4-4.2c-0.3-0.7-0.7-1.3-1.4-1.8c-0.6-0.5-1.4-0.7-2.3-0.7
		c-1,0-2,0.3-2.9,0.9c-0.9,0.6-1.6,1.5-2,2.5c-0.4,1-0.6,2.7-0.6,4.8v7.3H564V139.4z"/>
	<path class="st0" d="M613.9,150.9l1.9,1c-0.6,1.2-1.3,2.2-2.1,2.9c-0.8,0.7-1.7,1.3-2.7,1.7s-2.1,0.6-3.4,0.6c-2.8,0-5-0.9-6.6-2.8
		s-2.4-3.9-2.4-6.3c0-2.2,0.7-4.1,2-5.9c1.7-2.2,4-3.3,6.9-3.3c2.9,0,5.3,1.1,7.1,3.4c1.3,1.6,1.9,3.5,1.9,5.9h-15.5
		c0,2,0.7,3.7,1.9,4.9c1.2,1.3,2.8,1.9,4.6,1.9c0.9,0,1.7-0.2,2.6-0.5c0.8-0.3,1.5-0.7,2.1-1.2C612.5,152.9,613.2,152.1,613.9,150.9
		z M613.9,146.3c-0.3-1.2-0.7-2.1-1.3-2.8c-0.6-0.7-1.3-1.3-2.3-1.7c-0.9-0.4-1.9-0.7-2.9-0.7c-1.7,0-3.2,0.5-4.4,1.6
		c-0.9,0.8-1.6,2-2,3.6H613.9z"/>
	<path class="st0" d="M627.1,133h2.2v6.4h3.5v1.9h-3.5v15.4h-2.2v-15.4h-3v-1.9h3V133z"/>
	<path class="st0" d="M640.1,139.4h2.3v2.5c0.7-1,1.4-1.7,2.1-2.2c0.8-0.5,1.5-0.7,2.4-0.7c0.6,0,1.3,0.2,2,0.6l-1.2,1.9
		c-0.5-0.2-0.9-0.3-1.2-0.3c-0.7,0-1.5,0.3-2.1,0.9c-0.7,0.6-1.2,1.6-1.6,2.8c-0.3,1-0.4,3-0.4,6v5.8h-2.3V139.4z"/>
	<path class="st0" d="M672.7,139.4v17.3h-2.2v-3c-0.9,1.1-2,2-3.1,2.6c-1.2,0.6-2.4,0.9-3.8,0.9c-2.4,0-4.5-0.9-6.3-2.7
		s-2.6-3.9-2.6-6.5c0-2.5,0.9-4.6,2.6-6.4c1.7-1.8,3.8-2.7,6.3-2.7c1.4,0,2.7,0.3,3.9,0.9c1.1,0.6,2.2,1.5,3,2.7v-3.2H672.7z
		 M663.8,141.1c-1.2,0-2.4,0.3-3.4,0.9s-1.9,1.5-2.5,2.6c-0.6,1.1-0.9,2.3-0.9,3.5c0,1.2,0.3,2.4,0.9,3.5c0.6,1.1,1.5,2,2.5,2.6
		c1.1,0.6,2.2,0.9,3.4,0.9c1.2,0,2.4-0.3,3.5-0.9c1.1-0.6,1.9-1.4,2.5-2.5s0.9-2.2,0.9-3.5c0-2-0.7-3.7-2-5
		C667.4,141.8,665.7,141.1,663.8,141.1z"/>
	<path class="st0" d="M697.4,139.4h2.2v13.8c0,2.4-0.2,4.2-0.6,5.3c-0.6,1.6-1.6,2.8-3,3.7c-1.4,0.9-3.2,1.3-5.2,1.3
		c-1.5,0-2.8-0.2-4-0.6c-1.2-0.4-2.1-1-2.9-1.7s-1.4-1.7-2-3.1h2.4c0.7,1.1,1.5,2,2.5,2.5c1,0.6,2.3,0.8,3.9,0.8
		c1.5,0,2.8-0.3,3.8-0.8c1-0.6,1.8-1.3,2.2-2.1c0.4-0.9,0.7-2.2,0.7-4.1v-0.9c-0.8,1.1-1.9,1.9-3.1,2.4s-2.5,0.8-3.8,0.8
		c-1.6,0-3.1-0.4-4.5-1.2c-1.4-0.8-2.5-1.9-3.2-3.2s-1.1-2.8-1.1-4.4s0.4-3.1,1.2-4.5c0.8-1.4,1.9-2.5,3.3-3.3
		c1.4-0.8,2.9-1.2,4.4-1.2c1.3,0,2.5,0.3,3.6,0.8c1.1,0.5,2.2,1.4,3.2,2.6V139.4z M690.8,141.1c-1.3,0-2.4,0.3-3.5,0.9
		c-1.1,0.6-1.9,1.5-2.5,2.5c-0.6,1.1-0.9,2.2-0.9,3.5c0,1.9,0.6,3.5,1.9,4.7c1.3,1.2,2.9,1.9,4.9,1.9c2,0,3.7-0.6,4.9-1.8
		c1.2-1.2,1.9-2.8,1.9-4.8c0-1.3-0.3-2.5-0.9-3.5s-1.4-1.8-2.4-2.4C693.1,141.4,692,141.1,690.8,141.1z"/>
	<path class="st0" d="M723.6,150.9l1.9,1c-0.6,1.2-1.3,2.2-2.1,2.9c-0.8,0.7-1.7,1.3-2.7,1.7s-2.1,0.6-3.4,0.6c-2.8,0-5-0.9-6.6-2.8
		s-2.4-3.9-2.4-6.3c0-2.2,0.7-4.1,2-5.9c1.7-2.2,4-3.3,6.9-3.3c2.9,0,5.3,1.1,7.1,3.4c1.3,1.6,1.9,3.5,1.9,5.9h-15.5
		c0,2,0.7,3.7,1.9,4.9c1.2,1.3,2.8,1.9,4.6,1.9c0.9,0,1.7-0.2,2.6-0.5c0.8-0.3,1.5-0.7,2.1-1.2C722.3,152.9,723,152.1,723.6,150.9z
		 M723.6,146.3c-0.3-1.2-0.7-2.1-1.3-2.8c-0.6-0.7-1.3-1.3-2.3-1.7c-0.9-0.4-1.9-0.7-2.9-0.7c-1.7,0-3.2,0.5-4.4,1.6
		c-0.9,0.8-1.6,2-2,3.6H723.6z"/>
	<path class="st0" d="M735,139.4h2.2v3c0.8-1.1,1.6-1.9,2.4-2.4c1.1-0.7,2.3-1,3.5-1c0.8,0,1.6,0.2,2.4,0.5c0.8,0.3,1.4,0.8,1.8,1.3
		c0.5,0.5,0.9,1.3,1.2,2.3c0.7-1.4,1.7-2.4,2.8-3.1c1.1-0.7,2.3-1.1,3.6-1.1c1.2,0,2.2,0.3,3.2,0.9s1.6,1.4,2,2.5
		c0.4,1.1,0.7,2.7,0.7,4.9v9.4h-2.3v-9.4c0-1.9-0.1-3.1-0.4-3.8s-0.7-1.3-1.4-1.7c-0.6-0.4-1.4-0.6-2.3-0.6c-1.1,0-2.1,0.3-3,1
		s-1.5,1.5-2,2.5c-0.4,1.1-0.6,2.8-0.6,5.3v6.8h-2.2v-8.8c0-2.1-0.1-3.5-0.4-4.2c-0.3-0.7-0.7-1.3-1.4-1.8c-0.6-0.5-1.4-0.7-2.3-0.7
		c-1,0-2,0.3-2.9,0.9c-0.9,0.6-1.6,1.5-2,2.5c-0.4,1-0.6,2.7-0.6,4.8v7.3H735V139.4z"/>
</g>
<g>
	<g>
		<path class="st0" d="M223.5,61.9c-5.4,0-9.8,0.1-13,0.2c-23.8,0.6-35.8,10.6-35.8,30c0,11.3,9.9,16.9,29.6,16.9
			c9.1,0,15.5-0.7,19-2v4.8c-7.1,2.1-11.9,3.1-14.5,3.1c-26.6,0-39.9-7.6-39.9-22.7c0-15,5.8-25.2,17.4-30.5
			c7.6-3.6,19.9-5.4,37-5.6L223.5,61.9z"/>
		<path class="st0" d="M289.2,59.3c-3.1,0-5.3,0.2-6.6,0.6c-2.2,0.7-4.3,1.4-6.5,2.2c-9.5,2.9-14.2,8.8-14.2,17.8v33.3H256V79.9
			c0-6.6,1.5-11.7,4.5-15.2c2.7-3.2,7.2-5.9,13.7-8.1c4.7-1.5,7.1-2.4,7.2-2.5c1.4-0.3,4-0.5,7.7-0.5V59.3z"/>
		<path class="st0" d="M371.5,84.1c0,8.3-2.9,15.4-8.7,21.2c-5.8,5.8-12.8,8.7-21,8.7c-8.2,0-15.3-2.9-21.1-8.7
			c-5.9-5.8-8.8-12.9-8.8-21.2c0-8.2,2.9-15.2,8.8-21c5.9-5.8,12.9-8.7,21.1-8.7c8.2,0,15.2,2.9,21,8.7
			C368.6,68.9,371.5,75.9,371.5,84.1z M365.7,84.1c0-6.6-2.3-12.2-7-16.9c-4.7-4.7-10.3-7-16.9-7c-6.7,0-12.4,2.3-17,7
			c-4.7,4.7-7,10.3-7,16.9c0,6.7,2.3,12.4,7,17c4.7,4.7,10.4,7,17,7c6.6,0,12.2-2.3,16.9-7C363.3,96.5,365.7,90.8,365.7,84.1z"/>
		<path class="st0" d="M444.9,113.3h-5.9V80.1c0-8.9-4.7-14.9-14.2-17.7c-2-0.6-3.8-0.9-5.6-0.9c-1.9,0-3.8,0.3-5.9,0.9
			c-9.5,2.9-14.2,8.8-14.2,17.7v33.2h-5.9V80c0-11.7,6-19.5,18-23.2c2.7-0.8,5.2-1.2,7.7-1.2c2.5,0,5,0.4,7.7,1.2
			c12,3.8,18,11.5,18,23.2V113.3z"/>
		<path class="st0" d="M524,84.1c0,8.3-2.9,15.4-8.7,21.2c-5.8,5.8-12.8,8.7-21,8.7c-8.2,0-15.3-2.9-21.1-8.7
			c-5.9-5.8-8.8-12.9-8.8-21.2c0-8.2,2.9-15.2,8.8-21c5.9-5.8,12.9-8.7,21.1-8.7c8.2,0,15.2,2.9,21,8.7
			C521.1,68.9,524,75.9,524,84.1z M518.2,84.1c0-6.6-2.3-12.2-7-16.9c-4.7-4.7-10.3-7-16.9-7c-6.7,0-12.4,2.3-17,7
			c-4.7,4.7-7,10.3-7,16.9c0,6.7,2.3,12.4,7,17c4.7,4.7,10.4,7,17,7c6.6,0,12.2-2.3,16.9-7C515.8,96.5,518.2,90.8,518.2,84.1z"/>
		<path class="st0" d="M643.1,113.3h-5.9V79.9c0-5.1-1.1-8.9-3.4-11.5c-2.3-2.6-5.9-4.7-10.8-6.4c-2.2-0.6-4.2-0.9-6-0.9
			c-1.5,0-3.4,0.3-5.6,0.9c-4.9,1.7-8.4,3.7-10.5,6.2c-2.4,2.7-3.5,6.6-3.5,11.6v33.3h-5.9V78.1c0-4.9-2.2-8.9-6.5-12.3
			c-3.9-3.1-8.4-4.7-13.4-4.7c-1.7,0-3.6,0.3-5.7,0.9c-5,1.7-8.6,3.7-10.6,6.2c-2.4,2.7-3.5,6.6-3.5,11.6v33.3h-5.9V80
			c0-7.1,2.5-13,7.5-17.7c5-4.7,11.1-7,18.3-7c4,0,8.3,1.2,13,3.7c4.6,2.4,7.9,5.3,9.9,8.7c2-3.3,5.2-6.2,9.9-8.7
			c4.6-2.4,8.9-3.7,13-3.7c7.2,0,13.3,2.3,18.3,7c5,4.7,7.5,10.6,7.5,17.7V113.3z"/>
		<path class="st0" d="M724.6,75.2c0,2.2-0.4,6.2-1.2,12H666l-0.3,3.4c-0.2,4.6,0.8,8.5,3.1,11.6c2.3,3.1,4.6,6.2,6.9,9.4l-4.9,2.9
			c-2.6-3.6-5.1-7.2-7.7-10.9c-2.2-3.3-3.2-7.6-3.2-13c0-10.9,4.3-20,13-27.4c8.2-7.1,17.9-10.6,29-10.6
			C717,52.5,724.6,60.1,724.6,75.2z M718.8,75.2c0-11.2-5-16.8-15.1-16.8c-8.3,0-15.7,1.9-22,5.6c-7.1,4.1-11.9,9.9-14.3,17.4h51
			C718.6,79.1,718.8,77,718.8,75.2z"/>
		<path class="st0" d="M758.1,113.3h-5.9V60.8h-11.6V55h11.6v-55h5.9V113.3z"/>
		<path class="st0" d="M829,59.3c-3.1,0-5.3,0.2-6.6,0.6c-2.2,0.7-4.3,1.4-6.5,2.2c-9.5,2.9-14.2,8.8-14.2,17.8v33.3h-5.9V79.9
			c0-6.6,1.5-11.7,4.5-15.2c2.7-3.2,7.2-5.9,13.7-8.1c4.7-1.5,7.1-2.4,7.2-2.5c1.4-0.3,4-0.5,7.7-0.5V59.3z"/>
		<path class="st0" d="M866.3,115.1h-6.5c-2.1-2.8-3.1-6.8-3.1-12V54.4h5.9v48.7C862.6,107.2,863.9,111.2,866.3,115.1z"/>
		<path class="st0" d="M942,61.9c-5.4,0-9.8,0.1-13,0.2c-23.8,0.6-35.8,10.6-35.8,30c0,11.3,9.9,16.9,29.6,16.9c9.1,0,15.5-0.7,19-2
			v4.8c-7.1,2.1-11.9,3.1-14.5,3.1c-26.6,0-39.9-7.6-39.9-22.7c0-15,5.8-25.2,17.4-30.5c7.6-3.6,19.9-5.4,37-5.6L942,61.9z"/>
		<path class="st0" d="M1024.2,108.6c-3.1,1.3-8.3,2.7-15.7,4.2c-7.4,1.4-12.8,2.2-16.3,2.2c-20,0-30.1-7.6-30.1-22.9
			c0-12,5.4-21.5,16.3-28.8c9.5-6.2,20.5-9.3,33.2-9.4l12.5-0.2V108.6z M1018.7,60.1c-0.9-0.3-2.3-0.5-4-0.5
			c-11.8,0-22,2.4-30.7,7.2c-10.6,5.9-15.9,14.4-15.9,25.4c0,5.9,2.8,10.4,8.5,13.4c4.4,2.4,9.9,3.6,16.3,3.6
			c11.2,0,19.7-1.6,25.4-4.7c0,1.6,0-4.2,0-17.1c0-3.1,0-7.7,0.2-13.8C1018.6,67.5,1018.7,63,1018.7,60.1z"/>
	</g>
</g>
<line class="st1" x1="1095.9" y1="84" x2="1784.3" y2="84"/>
<line class="st1" x1="0.5" y1="84" x2="109.9" y2="84"/>
</svg>
