<?xml version="1.0" encoding="utf-8"?>
<!-- Generator: Adobe Illustrator 22.0.0, SVG Export Plug-In . SVG Version: 6.00 Build 0)  -->
<svg version="1.1" id="a78682bd-a665-4cfa-a163-eaee44d62dc1"
	 xmlns="http://www.w3.org/2000/svg" xmlns:xlink="http://www.w3.org/1999/xlink" x="0px" y="0px" viewBox="0 0 50 50"
	 style="enable-background:new 0 0 50 50;" xml:space="preserve">
<style type="text/css">
	.st0{fill:#FFFFFF;}
</style>
<title>insta_logo</title>
<g>
	<path class="st0" d="M25,1.3c13.1,0,23.7,10.6,23.7,23.7S38.1,48.7,25,48.7S1.3,38.1,1.3,25c0,0,0,0,0,0C1.3,11.9,11.9,1.3,25,1.3
		C25,1.3,25,1.3,25,1.3 M25,0.1C11.3,0.1,0.1,11.2,0.1,25c0,13.7,11.1,24.9,24.9,24.9S49.9,38.8,49.9,25c0,0,0,0,0,0
		C49.9,11.3,38.7,0.1,25,0.1z"/>
	<path class="st0" d="M10.7,34.6c2.2,0.2,4.5-0.2,6.5-1.1c0.9-0.4,1.8-0.9,2.6-1.6c-0.9,0-1.9-0.3-2.7-0.7c-1.4-0.7-2.5-1.9-3-3.3
		c-0.1-0.3-0.1-0.3,0.2-0.3c0.8,0.1,1.5,0.1,2.3-0.1c-0.5-0.1-1-0.3-1.5-0.6c-2-1-3.3-3.1-3.4-5.3c0-0.3,0.1-0.3,0.3-0.2
		c0.8,0.4,1.6,0.6,2.4,0.7c-0.4-0.4-0.7-0.6-1.1-1c-1.7-1.9-2.1-4.7-1-7c0.1-0.3,0.2-0.3,0.4-0.1c2.8,3.3,6.7,5.4,10.9,6
		c0.4,0.1,0.9,0.1,1.4,0.2s0.3-0.1,0.3-0.3c-0.6-3.4,1.7-6.6,5-7.2c1.9-0.3,3.9,0.3,5.4,1.6c0.2,0.2,0.4,0.2,0.7,0.2
		c1.2-0.3,2.3-0.7,3.3-1.3c0.1,0,0.2-0.1,0.3-0.2c-0.4,1.4-1.4,2.7-2.6,3.4c1.2-0.1,2.3-0.4,3.4-0.9c0,0.1-0.1,0.2-0.2,0.4
		c-0.7,1-1.6,1.9-2.6,2.6c-0.2,0.1-0.3,0.3-0.2,0.5c0.1,4.4-1.4,8.8-4.3,12.1c-2.6,3.2-6.3,5.2-10.4,5.8c-4.3,0.7-8.7-0.1-12.4-2.4
		C10.8,34.7,10.7,34.6,10.7,34.6z"/>
</g>
</svg>
